<mxfile host="app.diagrams.net" modified="2020-12-08T23:08:58.942Z" agent="5.0 (Windows NT 10.0; Win64; x64) AppleWebKit/537.36 (KHTML, like Gecko) Chrome/87.0.4280.66 Safari/537.36" etag="dWd3PNtdtxSaz6uWf3kQ" version="13.10.9" type="github" pages="2">
  <diagram id="hnk0GGWnFjxsSdoRdIvr" name="Page-1">
    <mxGraphModel dx="1865" dy="1660" grid="1" gridSize="10" guides="1" tooltips="1" connect="1" arrows="1" fold="1" page="1" pageScale="1" pageWidth="827" pageHeight="1169" math="0" shadow="0">
      <root>
        <mxCell id="0" />
        <mxCell id="1" parent="0" />
        <mxCell id="jYTuma2HT8K56uy17BPV-4" style="edgeStyle=orthogonalEdgeStyle;rounded=0;orthogonalLoop=1;jettySize=auto;html=1;startArrow=ERone;startFill=0;entryX=0.605;entryY=1.017;entryDx=0;entryDy=0;entryPerimeter=0;endArrow=ERone;endFill=0;" edge="1" parent="1" source="8ZY2IFjKFhMp_e0ys6mb-2" target="8ZY2IFjKFhMp_e0ys6mb-4">
          <mxGeometry relative="1" as="geometry">
            <mxPoint x="409" y="-460" as="targetPoint" />
            <Array as="points">
              <mxPoint x="410" y="-440" />
              <mxPoint x="413" y="-440" />
            </Array>
          </mxGeometry>
        </mxCell>
        <mxCell id="8ZY2IFjKFhMp_e0ys6mb-2" value="mail station" style="rounded=0;whiteSpace=wrap;html=1;" parent="1" vertex="1">
          <mxGeometry x="350" y="-400" width="120" height="60" as="geometry" />
        </mxCell>
        <mxCell id="8ZY2IFjKFhMp_e0ys6mb-15" style="edgeStyle=orthogonalEdgeStyle;rounded=0;orthogonalLoop=1;jettySize=auto;html=1;startArrow=ERone;startFill=0;endArrow=ERmany;endFill=0;entryX=0.583;entryY=1;entryDx=0;entryDy=0;entryPerimeter=0;" parent="1" source="8ZY2IFjKFhMp_e0ys6mb-3" target="8ZY2IFjKFhMp_e0ys6mb-7" edge="1">
          <mxGeometry relative="1" as="geometry">
            <mxPoint x="680" y="-240" as="targetPoint" />
            <Array as="points">
              <mxPoint x="690" y="-240" />
            </Array>
          </mxGeometry>
        </mxCell>
        <mxCell id="8ZY2IFjKFhMp_e0ys6mb-16" style="edgeStyle=orthogonalEdgeStyle;rounded=0;orthogonalLoop=1;jettySize=auto;html=1;entryX=0.32;entryY=1.033;entryDx=0;entryDy=0;entryPerimeter=0;startArrow=ERone;startFill=0;endArrow=ERmany;endFill=0;" parent="1" source="8ZY2IFjKFhMp_e0ys6mb-3" target="8ZY2IFjKFhMp_e0ys6mb-5" edge="1">
          <mxGeometry relative="1" as="geometry" />
        </mxCell>
        <mxCell id="8ZY2IFjKFhMp_e0ys6mb-3" value="address" style="rounded=0;whiteSpace=wrap;html=1;" parent="1" vertex="1">
          <mxGeometry x="330" y="-210" width="120" height="60" as="geometry" />
        </mxCell>
        <mxCell id="8ZY2IFjKFhMp_e0ys6mb-4" value="processing system" style="rounded=0;whiteSpace=wrap;html=1;" parent="1" vertex="1">
          <mxGeometry x="340" y="-530" width="120" height="60" as="geometry" />
        </mxCell>
        <mxCell id="8ZY2IFjKFhMp_e0ys6mb-5" value="customer" style="rounded=0;whiteSpace=wrap;html=1;" parent="1" vertex="1">
          <mxGeometry x="10" y="-400" width="120" height="60" as="geometry" />
        </mxCell>
        <mxCell id="8ZY2IFjKFhMp_e0ys6mb-7" value="employees" style="rounded=0;whiteSpace=wrap;html=1;" parent="1" vertex="1">
          <mxGeometry x="620" y="-390" width="120" height="60" as="geometry" />
        </mxCell>
        <mxCell id="8ZY2IFjKFhMp_e0ys6mb-20" style="edgeStyle=orthogonalEdgeStyle;rounded=0;orthogonalLoop=1;jettySize=auto;html=1;exitX=1;exitY=0.5;exitDx=0;exitDy=0;startArrow=ERmany;startFill=0;endArrow=ERmany;endFill=0;entryX=0;entryY=0.5;entryDx=0;entryDy=0;" parent="1" source="8ZY2IFjKFhMp_e0ys6mb-5" target="8ZY2IFjKFhMp_e0ys6mb-2" edge="1">
          <mxGeometry relative="1" as="geometry">
            <mxPoint x="130" y="-370" as="sourcePoint" />
            <mxPoint x="220" y="-370" as="targetPoint" />
          </mxGeometry>
        </mxCell>
        <mxCell id="8ZY2IFjKFhMp_e0ys6mb-23" style="edgeStyle=orthogonalEdgeStyle;rounded=0;orthogonalLoop=1;jettySize=auto;html=1;entryX=0;entryY=0.5;entryDx=0;entryDy=0;startArrow=ERone;startFill=0;endArrow=ERmany;endFill=0;" parent="1" source="8ZY2IFjKFhMp_e0ys6mb-2" target="8ZY2IFjKFhMp_e0ys6mb-7" edge="1">
          <mxGeometry relative="1" as="geometry">
            <mxPoint x="470" y="-370" as="sourcePoint" />
            <mxPoint x="499.7600000000002" y="-359.8399999999999" as="targetPoint" />
          </mxGeometry>
        </mxCell>
        <mxCell id="bsbDy2MxF6c4dUeJ8BXN-1" value="customer id" style="ellipse;whiteSpace=wrap;html=1;" parent="1" vertex="1">
          <mxGeometry x="365" y="-620" width="120" height="80" as="geometry" />
        </mxCell>
        <mxCell id="bsbDy2MxF6c4dUeJ8BXN-3" value="processing system id" style="ellipse;whiteSpace=wrap;html=1;" parent="1" vertex="1">
          <mxGeometry x="230" y="-650" width="140" height="80" as="geometry" />
        </mxCell>
        <mxCell id="bsbDy2MxF6c4dUeJ8BXN-4" value="street" style="ellipse;whiteSpace=wrap;html=1;" parent="1" vertex="1">
          <mxGeometry x="340" y="-70" width="120" height="80" as="geometry" />
        </mxCell>
        <mxCell id="bsbDy2MxF6c4dUeJ8BXN-5" value="first name" style="ellipse;whiteSpace=wrap;html=1;" parent="1" vertex="1">
          <mxGeometry x="190" y="-160" width="120" height="80" as="geometry" />
        </mxCell>
        <mxCell id="bsbDy2MxF6c4dUeJ8BXN-6" value="last name&amp;nbsp;" style="ellipse;whiteSpace=wrap;html=1;" parent="1" vertex="1">
          <mxGeometry x="220" y="-90" width="120" height="80" as="geometry" />
        </mxCell>
        <mxCell id="bsbDy2MxF6c4dUeJ8BXN-7" value="city" style="ellipse;whiteSpace=wrap;html=1;" parent="1" vertex="1">
          <mxGeometry x="450" y="-70" width="120" height="80" as="geometry" />
        </mxCell>
        <mxCell id="bsbDy2MxF6c4dUeJ8BXN-8" value="house nr." style="ellipse;whiteSpace=wrap;html=1;" parent="1" vertex="1">
          <mxGeometry x="470" y="-160" width="120" height="80" as="geometry" />
        </mxCell>
        <mxCell id="bsbDy2MxF6c4dUeJ8BXN-9" value="first name" style="ellipse;whiteSpace=wrap;html=1;" parent="1" vertex="1">
          <mxGeometry x="-100" y="-480" width="120" height="80" as="geometry" />
        </mxCell>
        <mxCell id="bsbDy2MxF6c4dUeJ8BXN-10" value="address" style="ellipse;whiteSpace=wrap;html=1;" parent="1" vertex="1">
          <mxGeometry x="-110" y="-410" width="120" height="80" as="geometry" />
        </mxCell>
        <mxCell id="bsbDy2MxF6c4dUeJ8BXN-11" value="customer id" style="ellipse;whiteSpace=wrap;html=1;" parent="1" vertex="1">
          <mxGeometry x="-70" y="-320" width="120" height="80" as="geometry" />
        </mxCell>
        <mxCell id="bsbDy2MxF6c4dUeJ8BXN-12" value="first name" style="ellipse;whiteSpace=wrap;html=1;" parent="1" vertex="1">
          <mxGeometry x="710" y="-480" width="120" height="80" as="geometry" />
        </mxCell>
        <mxCell id="bsbDy2MxF6c4dUeJ8BXN-13" value="last name" style="ellipse;whiteSpace=wrap;html=1;" parent="1" vertex="1">
          <mxGeometry x="740" y="-400" width="120" height="80" as="geometry" />
        </mxCell>
        <mxCell id="bsbDy2MxF6c4dUeJ8BXN-14" value="department" style="ellipse;whiteSpace=wrap;html=1;" parent="1" vertex="1">
          <mxGeometry x="720" y="-260" width="120" height="80" as="geometry" />
        </mxCell>
        <mxCell id="bsbDy2MxF6c4dUeJ8BXN-15" value="address" style="ellipse;whiteSpace=wrap;html=1;" parent="1" vertex="1">
          <mxGeometry x="690" y="-330" width="120" height="80" as="geometry" />
        </mxCell>
        <mxCell id="bsbDy2MxF6c4dUeJ8BXN-16" value="mail station id" style="ellipse;whiteSpace=wrap;html=1;" parent="1" vertex="1">
          <mxGeometry x="260" y="-330" width="110" height="80" as="geometry" />
        </mxCell>
        <mxCell id="bsbDy2MxF6c4dUeJ8BXN-17" value="address" style="ellipse;whiteSpace=wrap;html=1;" parent="1" vertex="1">
          <mxGeometry x="160" y="-320" width="110" height="80" as="geometry" />
        </mxCell>
        <mxCell id="bsbDy2MxF6c4dUeJ8BXN-18" value="customer id" style="ellipse;whiteSpace=wrap;html=1;" parent="1" vertex="1">
          <mxGeometry x="370" y="-340" width="110" height="80" as="geometry" />
        </mxCell>
        <mxCell id="bsbDy2MxF6c4dUeJ8BXN-19" value="processing system id" style="ellipse;whiteSpace=wrap;html=1;" parent="1" vertex="1">
          <mxGeometry x="475" y="-340" width="110" height="80" as="geometry" />
        </mxCell>
        <mxCell id="bsbDy2MxF6c4dUeJ8BXN-22" value="last name" style="ellipse;whiteSpace=wrap;html=1;" parent="1" vertex="1">
          <mxGeometry x="-90" y="-560" width="120" height="80" as="geometry" />
        </mxCell>
        <mxCell id="jYTuma2HT8K56uy17BPV-1" value="address id" style="ellipse;whiteSpace=wrap;html=1;" vertex="1" parent="1">
          <mxGeometry x="340" y="-140" width="120" height="80" as="geometry" />
        </mxCell>
        <mxCell id="jYTuma2HT8K56uy17BPV-2" value="employees id" style="ellipse;whiteSpace=wrap;html=1;" vertex="1" parent="1">
          <mxGeometry x="570" y="-490" width="120" height="80" as="geometry" />
        </mxCell>
        <mxCell id="jYTuma2HT8K56uy17BPV-3" value="loan" style="ellipse;whiteSpace=wrap;html=1;" vertex="1" parent="1">
          <mxGeometry x="740" y="-190" width="120" height="80" as="geometry" />
        </mxCell>
      </root>
    </mxGraphModel>
  </diagram>
  <diagram id="Oa4SpMIAOaJcCR6CmX-8" name="Page-2">
    <mxGraphModel dx="1038" dy="491" grid="1" gridSize="10" guides="1" tooltips="1" connect="1" arrows="1" fold="1" page="1" pageScale="1" pageWidth="827" pageHeight="1169" math="0" shadow="0">
      <root>
        <mxCell id="JO5ajSMM-dHssCaJp00G-0" />
        <mxCell id="JO5ajSMM-dHssCaJp00G-1" parent="JO5ajSMM-dHssCaJp00G-0" />
      </root>
    </mxGraphModel>
  </diagram>
</mxfile>
